#!OML:ASF F:\VICON\USERDATA\INSTALL\rory3\rory3.ASF
:FULLY-SPECIFIED
:DEGREES
2997
root 1.98217 18.0978 0.466872 -362.541 69.181 -358.891
lowerback 6.33595 -2.86391 -6.84866
upperback 3.13138 -4.12368 -1.98584
thorax 0.0386451 -2.08961 2.01808
lowerneck -8.98371 -4.61358 -11.9997
upperneck 23.6065 -5.6796 7.27515
head 9.47312 -2.86814 3.94342
rclavicle 8.93537e-014 7.95139e-016
rhumerus 207.732 -145.79 -245.084
rradius 53.5813
rwrist -50.859
rhand -33.1296 -6.73243
rfingers 7.12502
rthumb -6.33937 -36.6176
lclavicle 8.93537e-014 7.95139e-016
lhumerus 25.8853 -31.0688 92.546
lradius 53.7268
lwrist 85.8908
lhand -11.8201 28.3661
lfingers 7.12502
lthumb 14.2303 57.8586
rfemur -14.6176 22.1881 7.21246
rtibia 31.181
rfoot -15.7098 -8.92833
rtoes -11.8573
lfemur -1.67012 -6.69394 -7.26458
ltibia 26.5841
lfoot -19.6135 18.5183
ltoes -5.26506
2998
root 1.9817 18.1007 0.458525 -362.517 69.0959 -358.915
lowerback 6.32673 -2.96804 -6.77817
upperback 3.08143 -4.26274 -1.87101
thorax 0.00688124 -2.15879 2.10516
lowerneck -9.58666 -4.13551 -12.7838
upperneck 24.2256 -5.00236 8.12613
head 9.77345 -2.52744 4.47253
rclavicle -4.13472e-014 -3.4191e-014
rhumerus 206.549 -148.148 -243.957
rradius 57.1219
rwrist -51.0506
rhand -33.0564 -5.77602
rfingers 7.12502
rthumb -6.2687 -35.6633
lclavicle -4.13472e-014 -3.4191e-014
lhumerus 24.5948 -29.0964 93.6134
lradius 55.0601
lwrist 88.7069
lhand -11.266 27.6516
lfingers 7.12502
lthumb 14.7642 57.1057
rfemur -14.6926 22.3974 7.16398
rtibia 31.1212
rfoot -15.6603 -9.06321
rtoes -11.6818
lfemur -1.69104 -6.68599 -7.29114
ltibia 26.5651
lfoot -19.6252 18.6524
ltoes -5.34725
2999
root 1.98182 18.1009 0.447154 -362.5 68.9747 -358.931
lowerback 6.3221 -2.9978 -6.63673
upperback 3.05282 -4.2974 -1.83236
thorax -0.0256223 -2.17421 2.06964
lowerneck -9.92143 -3.75798 -13.0912
upperneck 24.5106 -4.44845 8.44497
head 9.88537 -2.2601 4.71469
rclavicle -1.40143e-014 -2.22639e-014
rhumerus 205.356 -150.341 -242.825
rradius 60.7012
rwrist -51.0612
rhand -32.8411 -4.44313
rfingers 7.12502
rthumb -6.06083 -34.3364
lclavicle -1.40143e-014 -2.22639e-014
lhumerus 23.2772 -27.0739 95.2218
lradius 56.3137
lwrist 90.9402
lhand -10.848 28.1873
lfingers 7.12502
lthumb 15.1669 57.6114
rfemur -14.747 22.5848 7.10177
rtibia 31.036
rfoot -15.5993 -9.11594
rtoes -11.6141
lfemur -1.70951 -6.69438 -7.34344
ltibia 26.6096
lfoot -19.7444 18.7618
ltoes -5.31371
3000
root 1.98204 18.1013 0.437505 -362.547 68.8178 -359.052
lowerback 6.2702 -2.95335 -6.44079
upperback 3.00144 -4.22852 -1.7911
thorax -0.068201 -2.1371 1.99994
lowerneck -9.88657 -3.41572 -12.6803
upperneck 24.4696 -3.91412 7.91633
head 9.77849 -2.02814 4.51476
rclavicle -1.88845e-015 -9.54166e-015
rhumerus 204.011 -152.547 -241.45
rradius 64.4872
rwrist -51.0987
rhand -32.8435 -3.42849
rfingers 7.12502
rthumb -6.06316 -33.3217
lclavicle -1.88845e-015 -9.54166e-015
lhumerus 21.8872 -24.9791 96.9761
lradius 57.8236
lwrist 92.8645
lhand -10.3164 29.3086
lfingers 7.12502
lthumb 15.679 58.6933
rfemur -14.8286 22.9227 7.086
rtibia 30.9443
rfoot -15.5277 -9.2939
rtoes -11.577
lfemur -1.76816 -6.60279 -7.32936
ltibia 26.684
lfoot -19.8283 18.8341
ltoes -5.28433
3001
root 1.98126 18.103 0.428483 -362.498 68.5975 -359.103
lowerback 6.18856 -2.92779 -6.24041
upperback 2.96991 -4.18089 -1.75896
thorax -0.0725774 -2.1119 1.91675
lowerneck -9.52756 -2.97819 -10.8663
upperneck 23.9218 -3.21063 5.97305
head 9.37282 -1.73726 3.57857
rclavicle -3.66758e-014 -2.38542e-014
rhumerus 202.897 -154.861 -240.304
rradius 68.2977
rwrist -50.7251
rhand -32.5387 -2.38706
rfingers 7.12502
rthumb -5.76881 -32.2885
lclavicle -3.66758e-014 -2.38542e-014
lhumerus 20.5018 -22.9044 98.0645
lradius 59.753
lwrist 94.3447
lhand -9.8979 29.5651
lfingers 7.12502
lthumb 16.082 58.9178
rfemur -14.9798 23.4186 7.02585
rtibia 30.8644
rfoot -15.5335 -9.49396
rtoes -11.3646
lfemur -1.84429 -6.40495 -7.32552
ltibia 26.7552
lfoot -19.8542 18.9106
ltoes -5.41888
3002
root 1.98287 18.1019 0.415097 -362.296 68.3621 -358.901
lowerback 6.23609 -2.94453 -6.08963
upperback 2.95824 -4.20033 -1.73243
thorax -0.119209 -2.11935 1.8653
lowerneck -10.0083 -2.61711 -10.9065
upperneck 24.3677 -2.58936 5.76382
head 9.5615 -1.47132 3.58994
rclavicle -9.06458e-014 -3.89618e-014
rhumerus 202.059 -157.337 -239.306
rradius 71.9108
rwrist -49.9567
rhand -31.5976 -1.01335
rfingers 7.12502
rthumb -4.86016 -30.9376
lclavicle -9.06458e-014 -3.89618e-014
lhumerus 19.1095 -20.8564 98.7285
lradius 61.93
lwrist 95.7353
lhand -8.86832 29.562
lfingers 7.12502
lthumb 17.0732 58.8318
rfemur -15.0805 23.8759 6.85108
rtibia 30.8278
rfoot -15.6049 -9.59666
rtoes -10.9337
lfemur -1.80706 -6.3394 -7.50155
ltibia 26.7927
lfoot -19.9951 19.1088
ltoes -5.26262
3003
root 1.98495 18.1035 0.401384 -361.946 68.0766 -358.499
lowerback 6.27945 -2.86677 -6.0495
upperback 2.95042 -4.09885 -1.733
thorax -0.162242 -2.06708 1.8406
lowerneck -10.1167 -2.26956 -10.7796
upperneck 24.5559 -2.02827 5.44404
head 9.59245 -1.23162 3.523
rclavicle 2.19657e-014 7.95139e-015
rhumerus 201.109 -159.738 -238.179
rradius 75.4596
rwrist -49.2506
rhand -30.8898 0.272343
rfingers 7.12502
rthumb -4.17674 -29.6665
lclavicle 2.19657e-014 7.95139e-015
lhumerus 17.8164 -19.0081 99.4317
lradius 63.9762
lwrist 97.0107
lhand -5.89308 30.2823
lfingers 7.12502
lthumb 19.9351 59.2798
rfemur -15.2001 24.3429 6.59652
rtibia 30.8493
rfoot -15.597 -9.67203
rtoes -10.7588
lfemur -1.71107 -6.32236 -7.7923
ltibia 26.8052
lfoot -20.2612 19.3902
ltoes -5.00173
3004
root 1.98292 18.1055 0.388279 -361.424 67.6738 -358.05
lowerback 6.20104 -2.70274 -6.04923
upperback 2.87997 -3.87995 -1.78072
thorax -0.211714 -1.95528 1.77868
lowerneck -9.96802 -1.96324 -10.2813
upperneck 24.6267 -1.57766 4.92926
head 9.53999 -1.03023 3.3085
rclavicle -1.145e-013 -3.4191e-014
rhumerus 200.037 -162.138 -237.005
rradius 79.0183
rwrist -48.5405
rhand -30.5773 1.22028
rfingers 7.12502
rthumb -3.87491 -28.7242
lclavicle -1.145e-013 -3.4191e-014
lhumerus 16.6477 -17.3061 99.9701
lradius 65.7961
lwrist 98.0966
lhand -2.09057 29.7252
lfingers 7.12502
lthumb 23.5865 58.2987
rfemur -15.5722 24.7511 6.26845
rtibia 30.9235
rfoot -15.4771 -9.62293
rtoes -10.5938
lfemur -1.71493 -6.00413 -8.02915
ltibia 26.795
lfoot -20.4482 19.5049
ltoes -4.62532
3005
root 1.97769 18.1044 0.37319 -360.751 67.1454 -357.542
lowerback 6.06805 -2.4956 -5.98965
upperback 2.76005 -3.59983 -1.91201
thorax -0.295581 -1.81014 1.59392
lowerneck -9.84268 -1.73421 -9.68394
upperneck 24.8226 -1.2349 4.35846
head 9.54928 -0.876947 3.0482
rclavicle 1.22253e-014 -2.22639e-014
rhumerus 198.953 -164.589 -235.878
rradius 82.5791
rwrist -48.1157
rhand -30.5577 1.29607
rfingers 7.12502
rthumb -3.85603 -28.6488
lclavicle 1.22253e-014 -2.22639e-014
lhumerus 15.3424 -15.67 100.345
lradius 67.7029
lwrist 98.7846
lhand -2.963 30.3492
lfingers 7.12502
lthumb 22.7495 59.028
rfemur -16.1186 25.0857 5.84602
rtibia 30.9992
rfoot -15.2963 -9.42789
rtoes -10.6074
lfemur -1.81978 -5.32755 -8.25963
ltibia 26.7937
lfoot -20.3025 19.7331
ltoes -5.12473
